<?xml version="1.0" encoding="utf-8"?>
<!-- Svg Vector Icons : http://www.sfont.cn -->
<!DOCTYPE svg PUBLIC "-//W3C//DTD SVG 1.1//EN" "http://www.w3.org/Graphics/SVG/1.1/DTD/svg11.dtd">
<svg version="1.1" xmlns="http://www.w3.org/2000/svg" xmlns:xlink="http://www.w3.org/1999/xlink" x="0px" y="0px" viewBox="0 0 1000 1000" enable-background="new 0 0 1000 1000" xml:space="preserve">
<metadata> Svg Vector Icons : http://www.sfont.cn </metadata>
<g><g transform="translate(0.000000,511.000000) scale(0.100000,-0.100000)"><path d="M100,3376.7v-1225h1225h1225v1225v1225H1325H100V3376.7z"/><path d="M3366.7,4193.3V3785h3266.7H9900v408.3v408.3H6633.3H3366.7V4193.3z"/><path d="M3366.7,2560v-408.3h2041.7H7450V2560v408.3H5408.3H3366.7V2560z"/><path d="M100,110v-1225h1225h1225V110v1225H1325H100V110z"/><path d="M3366.7,926.7V518.3h3266.7H9900v408.3V1335H6633.3H3366.7V926.7z"/><path d="M3366.7-706.7V-1115h2041.7H7450v408.3v408.3H5408.3H3366.7V-706.7z"/><path d="M100-3156.7v-1225h1225h1225v1225v1225H1325H100V-3156.7z"/><path d="M3366.7-2340v-408.3h3266.7H9900v408.3v408.3H6633.3H3366.7V-2340z"/><path d="M3366.7-3973.3v-408.3h2041.7H7450v408.3v408.3H5408.3H3366.7V-3973.3z"/></g></g>
</svg>