<?xml version="1.0" encoding="utf-8"?>
<!-- Svg Vector Icons : http://www.sfont.cn -->
<!DOCTYPE svg PUBLIC "-//W3C//DTD SVG 1.1//EN" "http://www.w3.org/Graphics/SVG/1.1/DTD/svg11.dtd">
<svg version="1.1" xmlns="http://www.w3.org/2000/svg" xmlns:xlink="http://www.w3.org/1999/xlink" x="0px" y="0px" viewBox="0 0 1000 1000" enable-background="new 0 0 1000 1000" xml:space="preserve">
<metadata> Svg Vector Icons : http://www.sfont.cn </metadata>
<g><g transform="translate(0.000000,512.000000) scale(0.100000,-0.100000)"><path d="M100,120v-4900h4900h4900V120v4900H5000H100V120z M4425.8,1593.8V-339.4H2971.1H1516.4v1933.2V3527h1454.7h1454.7V1593.8z M8407,3134.6v-392.4H6856.6H5306.2v379c0,208.6,5.7,386.6,13.4,392.4c5.7,7.7,704.4,13.4,1550.4,13.4h1537V3134.6z M8407,1584.3v-392.4l-1544.6,3.8l-1546.6,5.7l-5.7,388.5l-3.8,386.6h1550.4H8407V1584.3z M8407,53v-392.4H6856.6H5306.2v379c0,208.6,5.7,386.6,13.4,392.4c5.7,7.7,704.4,13.4,1550.4,13.4h1537V53z M8407-1487.8v-382.8H4952.1H1497.3v382.8v382.8h3454.9H8407V-1487.8z M8407-3028.6V-3421H4952.1H1497.3v392.4v392.4h3454.9H8407V-3028.6z"/></g></g>
</svg>