<?xml version="1.0" encoding="utf-8"?>
<!-- Svg Vector Icons : http://www.sfont.cn -->
<!DOCTYPE svg PUBLIC "-//W3C//DTD SVG 1.1//EN" "http://www.w3.org/Graphics/SVG/1.1/DTD/svg11.dtd">
<svg version="1.1" xmlns="http://www.w3.org/2000/svg" xmlns:xlink="http://www.w3.org/1999/xlink" x="0px" y="0px" viewBox="0 0 1000 1000" enable-background="new 0 0 1000 1000" xml:space="preserve">
<metadata> Svg Vector Icons : http://www.sfont.cn </metadata>
<g><path d="M302.4,202.9c13.2,0,25.8,2.6,38,7.8c12.1,5.2,22.7,12.1,31.7,20.8c9,8.7,16.1,19.1,21.3,31.2s7.8,25.2,7.8,39c0,13.9-2.6,26.7-7.8,38.5c-5.2,11.8-12.3,22.2-21.3,31.2c-9,9-19.6,16.1-31.7,21.3c-12.1,5.2-24.8,7.8-38,7.8c-13.9,0-26.9-2.6-39-7.8c-12.1-5.2-22.5-12.3-31.2-21.3s-15.6-19.4-20.8-31.2c-5.2-11.8-7.8-24.6-7.8-38.5c0-27.8,9.5-51.2,28.6-70.2C251.3,212.4,274.7,202.9,302.4,202.9L302.4,202.9z M658.4,923H138c-17.3,0-33.6-2.8-48.9-8.3c-15.3-5.5-28.8-13.9-40.6-25c-11.8-11.1-21.2-24.5-28.1-40.1C13.5,834.1,10,816.2,10,796.1V142.5c0-17.3,3.1-33.8,9.4-49.4c6.2-15.6,14.9-29.3,26-41.1c11.1-11.8,24.3-21.3,39.5-28.6c15.3-7.3,31.9-10.9,50-10.9h653.6c37.5,0,68.9,11.6,94.2,34.9c25.3,23.2,38,57.4,38,102.5v399.6c-7.6-9-15.3-17.9-22.9-26.5c-7.6-8.7-15.3-17.2-22.9-25.5c-11.8-13.2-25-23.1-39.5-29.7c-14.6-6.6-29.3-9.9-44.2-9.9c-14.9,0-29.5,3.1-43.7,9.4c-14.2,6.2-26.9,15.6-38,28.1c-16.7,19.4-33.6,40.1-51,61.9c-17.3,21.9-34.3,43.7-51,65.6c-16.7,21.9-32.6,43-47.9,63.5c-15.3,20.5-29.1,38.3-41.6,53.6c-7.6,9-12,20.1-13,33.3c-1,13.2,0.5,25.8,4.7,38c4.2,12.1,10.8,22.6,19.8,31.2s20.5,13,34.3,13h50l44.8-1V923L658.4,923z M288.9,596.3c36.1,0,67-6.1,92.6-18.2s49.1-27.4,70.2-45.8c21.2-18.4,41.6-38.3,61.4-59.8c19.8-21.5,42.3-41.6,67.6-60.4s54.6-34.7,87.9-47.9c33.3-13.2,73.9-20.8,121.8-22.9V166.5c0-8.3-2.9-15.3-8.8-20.8c-5.9-5.6-12.7-8.3-20.3-8.3H168.2c-8.3,0-15.3,2.8-20.8,8.3c-5.6,5.6-8.3,12.5-8.3,20.8v363.2c6.9,8.3,14.2,16.5,21.9,24.5c7.6,8,17,15.1,28.1,21.3s24.5,11.3,40.1,15.1C244.7,594.4,264.6,596.3,288.9,596.3L288.9,596.3z M968.5,737.8c12.5,20.1,19.6,34.2,21.3,42.1c1.7,8-8.8,12-31.7,12h-57.2c-15.3,0-26.7,3.8-34.3,11.4c-7.6,7.6-11.4,17.3-11.4,29.1v102c0,11.8-5.2,23.6-15.6,35.4c-10.4,11.8-22.9,17.7-37.5,17.7h-41.6c-9.7,0-18.6-4-26.5-12s-12-22-12-42.1c0-9,0.2-14.7,0.5-17.2c0.3-2.4,0.5-5.6,0.5-9.4c0-3.8,0.2-10.2,0.5-19.3s0.5-24.6,0.5-46.8c0-18-3.1-30.7-9.4-38c-6.2-7.3-17-10.9-32.3-10.9h-55.2c-16,0-26.2-3.5-30.7-10.4s-1.2-17.3,9.9-31.2c11.1-13.9,23.1-30,35.9-48.4c12.8-18.4,26-37.3,39.5-56.7c13.5-19.4,26.7-38.7,39.5-57.8c12.8-19.1,25.2-35.9,36.9-50.5c4.9-5.6,11.3-9.5,19.3-12c8-2.4,16.3-3.6,25-3.6s16.7,1.4,23.9,4.2s12.3,6.6,15.1,11.4c9,14.6,18.9,30.4,29.7,47.4c10.8,17,21.9,34.3,33.3,52c11.4,17.7,22.5,35.2,33.3,52.6C948.5,706.2,958.8,722.5,968.5,737.8L968.5,737.8z"/></g>
</svg>